<?xml version="1.0" encoding="UTF-8" standalone="no"?>
<svg
   xmlns:dc="http://purl.org/dc/elements/1.1/"
   xmlns:cc="http://creativecommons.org/ns#"
   xmlns:rdf="http://www.w3.org/1999/02/22-rdf-syntax-ns#"
   xmlns:svg="http://www.w3.org/2000/svg"
   xmlns="http://www.w3.org/2000/svg"
   xmlns:sodipodi="http://sodipodi.sourceforge.net/DTD/sodipodi-0.dtd"
   xmlns:inkscape="http://www.inkscape.org/namespaces/inkscape"
   width="1800"
   height="1200"
   viewBox="0 0 476.24999 317.50001"
   version="1.1"
   id="svg8"
   inkscape:version="0.92.3 (2405546, 2018-03-11)"
   sodipodi:docname="logo_w.svg"
   inkscape:export-filename="C:\Users\sopos\logo.png"
   inkscape:export-xdpi="96"
   inkscape:export-ydpi="96">
  <defs
     id="defs2" />
  <sodipodi:namedview
     id="base"
     pagecolor="#ffffff"
     bordercolor="#666666"
     borderopacity="1.0"
     inkscape:pageopacity="0.0"
     inkscape:pageshadow="2"
     inkscape:zoom="0.08"
     inkscape:cx="576.73351"
     inkscape:cy="-443.16882"
     inkscape:document-units="px"
     inkscape:current-layer="layer1"
     showgrid="false"
     units="px"
     showguides="true"
     inkscape:window-width="939"
     inkscape:window-height="616"
     inkscape:window-x="403"
     inkscape:window-y="20"
     inkscape:window-maximized="0"
     height="1200px" />
  <metadata
     id="metadata5">
    <rdf:RDF>
      <cc:Work
         rdf:about="">
        <dc:format>image/svg+xml</dc:format>
        <dc:type
           rdf:resource="http://purl.org/dc/dcmitype/StillImage" />
        <dc:title></dc:title>
      </cc:Work>
    </rdf:RDF>
  </metadata>
  <g
     inkscape:label="レイヤー 1"
     inkscape:groupmode="layer"
     id="layer1"
     transform="translate(0,20.500019)">
    <g
       aria-label="Tuber"
       transform="matrix(1.0016297,0,0,0.99837354,0,-26.458513)"
       style="font-style:normal;font-variant:normal;font-weight:bold;font-stretch:normal;font-size:102.59919739px;line-height:1.25;font-family:Mairyo;-inkscape-font-specification:'Mairyo Bold';letter-spacing:0px;word-spacing:0px;fill:#ffffff;fill-opacity:1;stroke:none;stroke-width:2.56497955"
       id="text4527">
      <path
         d="M 251.15992,232.32748 H 233.1249 v -6.21206 c -3.33981,2.53826 -6.39575,4.47535 -9.1678,5.81128 -2.77205,1.30253 -6.07847,1.95379 -9.91926,1.95379 -6.21206,0 -11.0047,-1.7868 -14.37791,-5.36041 -3.33982,-3.5736 -5.00973,-8.85051 -5.00973,-15.83073 v -36.6211 h 18.13521 v 27.90417 c 0,2.83885 0.0835,5.21012 0.25049,7.11382 0.20039,1.87029 0.63456,3.42331 1.30253,4.65904 0.63457,1.23573 1.58641,2.13748 2.85554,2.70525 1.30253,0.56777 3.10604,0.85166 5.41051,0.85166 1.53631,0 3.23962,-0.28389 5.10992,-0.85166 1.87029,-0.56777 3.67379,-1.40272 5.4105,-2.50486 v -27.11764 h 18.03502 z"
         style="font-style:normal;font-variant:normal;font-weight:bold;font-stretch:normal;font-family:Mairyo;-inkscape-font-specification:'Mairyo Bold';fill:#ffffff;fill-opacity:1;stroke:none;stroke-width:2.56497955;stroke-opacity:1"
         id="path4531"
         inkscape:connector-curvature="0"
         sodipodi:nodetypes="ccccscsccscccsccccc" />
      <path
         d="m 326.95706,203.42136 c 0,8.85051 -2.45477,16.06452 -7.3643,21.64201 -4.87613,5.5775 -10.9713,8.36625 -18.2855,8.36625 -3.13943,0 -5.89478,-0.33398 -8.26605,-1.00195 -2.37126,-0.66796 -4.62563,-1.63651 -6.76311,-2.90564 l -0.75146,2.80545 h -17.28356 l 2e-5,-107.10292 h 18.03502 l -2e-5,56.70507 c 2.77205,-2.20428 5.59418,-3.99108 8.46642,-5.36041 2.90564,-1.36933 6.24546,-2.05399 10.01945,-2.05399 7.11381,0 12.59111,2.57166 16.4319,7.71498 3.84079,5.10992 5.76119,12.17364 5.76119,21.19115 z m -14.94242,1.30754 -22.09288,-13.25072 v 26.50145 z"
         style="font-style:normal;font-variant:normal;font-weight:bold;font-stretch:normal;font-family:Mairyo;-inkscape-font-specification:'Mairyo Bold';fill:#ffffff;fill-opacity:1;stroke:none;stroke-width:2.56497955"
         id="path4533"
         inkscape:connector-curvature="0"
         sodipodi:nodetypes="scsccccccccscscccc" />
      <path
         d="m 395.38992,207.52933 h -41.28014 q 0.40078,6.61284 5.00973,10.11965 4.65904,3.50681 13.67655,3.50681 5.71109,0 11.0715,-2.05399 5.36039,-2.05399 8.46642,-4.40856 h 2.00389 v 14.47811 q -6.11186,2.45476 -11.52236,3.5569 -5.4105,1.10214 -11.97324,1.10214 -16.93288,0 -25.95039,-7.61478 -9.0175,-7.61478 -9.0175,-21.69212 0,-13.92703 8.51653,-22.04279 8.56663,-8.16586 23.44552,-8.16586 13.72665,0 20.64006,6.96352 6.91343,6.91343 6.91343,19.93872 z m -17.93481,-10.57052 q -0.1503,-5.66099 -2.80545,-8.51654 -2.65516,-2.85554 -8.26605,-2.85554 -5.21011,0 -8.56663,2.70525 -3.35652,2.70525 -3.7573,8.66683 z"
         style="font-style:normal;font-variant:normal;font-weight:bold;font-stretch:normal;font-family:Mairyo;-inkscape-font-specification:'Mairyo Bold';fill:#ffffff;fill-opacity:1;stroke:none;stroke-width:2.56497955"
         id="path4535"
         inkscape:connector-curvature="0" />
      <path
         d="m 450.21603,193.25161 h -1.60311 c -0.76816,-0.26719 -2.00389,-0.46758 -3.7072,-0.60117 -1.70331,-0.13359 -3.12273,-0.20039 -4.25827,-0.20039 -2.57166,0 -4.84274,0.16699 -6.81323,0.50098 -1.97049,0.33398 -4.09128,0.90175 -6.36235,1.7033 v 89.57893 H 409.43686 V 176.06825 h 18.03501 v 8.26605 c 3.97439,-3.40661 7.4311,-5.66099 10.37013,-6.76313 2.93904,-1.13554 5.64429,-1.70331 8.11576,-1.70331 0.63457,0 1.35263,0.0167 2.15418,0.0501 0.80156,0.0334 1.50292,0.0835 2.10409,0.15029 z"
         style="font-style:normal;font-variant:normal;font-weight:bold;font-stretch:normal;font-family:Mairyo;-inkscape-font-specification:'Mairyo Bold';fill:#ffffff;fill-opacity:1;stroke:none;stroke-width:2.56497955"
         id="path4537"
         inkscape:connector-curvature="0"
         sodipodi:nodetypes="ccssccccccccsscc" />
      <ellipse
         style="fill:#ffffff;fill-opacity:1;stroke:none;stroke-width:0.65834028"
         id="path4540"
         cx="277.15909"
         cy="87.392822"
         rx="13.178433"
         ry="13.221423" />
      <path
         style="fill:none;fill-opacity:1;stroke:#ffffff;stroke-width:8.79994011;stroke-miterlimit:4;stroke-dasharray:none;stroke-opacity:1"
         id="path4542"
         sodipodi:type="arc"
         sodipodi:cx="277.15909"
         sodipodi:cy="87.392822"
         sodipodi:rx="28.641764"
         sodipodi:ry="28.749239"
         sodipodi:start="5.4977871"
         sodipodi:end="0.78539816"
         d="m 297.41187,67.06404 a 28.641764,28.749239 0 0 1 8.38898,20.328782 28.641764,28.749239 0 0 1 -8.38898,20.328778"
         sodipodi:open="true" />
      <path
         id="ellipse4544"
         style="fill:none;fill-opacity:1;stroke:#ffffff;stroke-width:8.79994011;stroke-miterlimit:4;stroke-dasharray:none;stroke-opacity:1"
         sodipodi:type="arc"
         sodipodi:cx="277.15909"
         sodipodi:cy="87.392822"
         sodipodi:rx="28.641764"
         sodipodi:ry="28.749239"
         sodipodi:start="2.3561945"
         sodipodi:end="3.9269908"
         d="m 256.9063,107.7216 a 28.641764,28.749239 0 0 1 0,-40.657559"
         sodipodi:open="true" />
      <path
         style="fill:none;fill-opacity:1;stroke:#ffffff;stroke-width:8.79994011;stroke-miterlimit:4;stroke-dasharray:none;stroke-opacity:1"
         id="path4548"
         sodipodi:type="arc"
         sodipodi:cx="277.15906"
         sodipodi:cy="87.795967"
         sodipodi:rx="48.353413"
         sodipodi:ry="48.53204"
         sodipodi:start="2.3561945"
         sodipodi:end="3.9269908"
         d="m 242.96803,122.1133 a 48.353413,48.53204 0 0 1 0,-68.634667"
         inkscape:transform-center-x="-3.0799559"
         inkscape:transform-center-y="-14.959942"
         sodipodi:open="true" />
      <path
         inkscape:transform-center-y="-14.959942"
         inkscape:transform-center-x="-3.0799532"
         d="m 311.47639,53.478631 a 48.532036,48.53204 0 0 1 14.2147,34.317335 48.532036,48.53204 0 0 1 -14.2147,34.317334"
         sodipodi:end="0.78539816"
         sodipodi:start="5.4977871"
         sodipodi:ry="48.53204"
         sodipodi:rx="48.532036"
         sodipodi:cy="87.795967"
         sodipodi:cx="277.15906"
         sodipodi:type="arc"
         id="path4554"
         style="fill:none;fill-opacity:1;stroke:#ffffff;stroke-width:8.79994011;stroke-miterlimit:4;stroke-dasharray:none;stroke-opacity:1"
         sodipodi:open="true" />
      <g
         aria-label="GAME.DEV.PROJ"
         transform="scale(0.99837287,1.0016298)"
         style="font-style:normal;font-variant:normal;font-weight:bold;font-stretch:normal;font-size:38.19479752px;line-height:1.25;font-family:Mairyo;-inkscape-font-specification:'Mairyo Bold';letter-spacing:0px;word-spacing:0px;fill:#ffffff;fill-opacity:1;stroke:none;stroke-width:1.14807296"
         id="text4562">
        <path
           d="m 76.455165,281.60742 q -1.864981,0.72735 -4.942198,1.45469 -3.077218,0.70869 -6.135786,0.70869 -7.086925,0 -11.096633,-3.84186 -4.009708,-3.86051 -4.009708,-10.64904 0,-6.47148 4.047008,-10.42524 4.047007,-3.9724 11.283131,-3.9724 2.741521,0 5.221945,0.50354 2.480424,0.4849 5.520342,1.95823 v 6.50878 h -0.801942 q -0.522194,-0.39164 -1.529284,-1.10034 -1.007089,-0.72734 -1.939579,-1.23088 -1.081689,-0.5968 -2.536374,-1.02574 -1.436034,-0.42895 -3.058567,-0.42895 -1.90228,0 -3.450214,0.5595 -1.547934,0.55949 -2.778821,1.71578 -1.174937,1.11899 -1.86498,2.85342 -0.671393,1.71578 -0.671393,3.97241 0,4.6065 2.443124,7.04962 2.443125,2.44313 7.217474,2.44313 0.410296,0 0.895191,-0.0186 0.503545,-0.0186 0.91384,-0.0559 v -5.44575 H 63.64275 v -5.24059 h 12.812415 z"
           style="fill:#ffffff;fill-opacity:1;stroke:none;stroke-width:1.14807296"
           id="path831"
           inkscape:connector-curvature="0" />
        <path
           d="m 108.51418,283.19266 h -7.40398 l -1.920925,-5.61359 H 88.894583 l -1.92093,5.61359 H 79.756179 L 90.013571,255.4231 h 8.243214 z m -11.059337,-10.70499 -3.412914,-9.95899 -3.412914,9.95899 z"
           style="fill:#ffffff;fill-opacity:1;stroke:none;stroke-width:1.14807296"
           id="path833"
           inkscape:connector-curvature="0" />
        <path
           d="m 141.65488,283.19266 h -7.12423 V 264.5988 l -5.14734,12.06643 h -4.9422 l -5.14735,-12.06643 v 18.59386 h -6.75122 V 255.4231 h 8.31781 l 6.24768,13.9314 6.22904,-13.9314 h 8.31781 z"
           style="fill:#ffffff;fill-opacity:1;stroke:none;stroke-width:1.14807296"
           id="path835"
           inkscape:connector-curvature="0" />
        <path
           d="M 168.80899,283.19266 H 148.72315 V 255.4231 h 20.08584 v 5.37114 h -12.96161 v 4.793 h 12.02912 v 5.37115 h -12.02912 v 6.86312 h 12.96161 z"
           style="fill:#ffffff;fill-opacity:1;stroke:none;stroke-width:1.14807296"
           id="path837"
           inkscape:connector-curvature="0" />
        <path
           d="m 181.67735,283.19266 h -6.97503 v -7.32938 h 6.97503 z"
           style="fill:#ffffff;fill-opacity:1;stroke:none;stroke-width:1.14807296"
           id="path839"
           inkscape:connector-curvature="0" />
        <path
           d="m 214.874,269.33585 q 0,3.87916 -1.77173,6.95638 -1.77173,3.05857 -4.47595,4.69975 -2.03283,1.23089 -4.4573,1.71578 -2.42448,0.4849 -5.74414,0.4849 h -9.79115 V 255.4231 h 10.07089 q 3.39427,0 5.85604,0.57814 2.46178,0.5595 4.14026,1.60389 2.87207,1.75308 4.51325,4.73705 1.65983,2.96532 1.65983,6.99367 z m -7.40397,-0.0559 q 0,-2.74152 -1.00709,-4.6811 -0.98844,-1.95823 -3.15181,-3.05856 -1.10034,-0.54085 -2.25663,-0.72735 -1.13764,-0.20514 -3.45021,-0.20514 h -1.80904 v 17.38161 h 1.80904 q 2.55502,0 3.74861,-0.2238 1.19358,-0.24244 2.33122,-0.85789 1.95823,-1.11898 2.87207,-2.98396 0.91384,-1.88364 0.91384,-4.64381 z"
           style="fill:#ffffff;fill-opacity:1;stroke:none;stroke-width:1.14807296"
           id="path841"
           inkscape:connector-curvature="0" />
        <path
           d="M 240.42423,283.19266 H 220.3384 V 255.4231 h 20.08583 v 5.37114 h -12.96161 v 4.793 h 12.02912 v 5.37115 h -12.02912 v 6.86312 h 12.96161 z"
           style="fill:#ffffff;fill-opacity:1;stroke:none;stroke-width:1.14807296"
           id="path843"
           inkscape:connector-curvature="0" />
        <path
           d="m 271.62536,255.4231 -10.12685,27.76956 H 253.4791 L 243.35225,255.4231 h 7.51588 l 6.71392,19.50769 6.71393,-19.50769 z"
           style="fill:#ffffff;fill-opacity:1;stroke:none;stroke-width:1.14807296"
           id="path845"
           inkscape:connector-curvature="0" />
        <path
           d="m 282.46089,283.19266 h -6.97503 v -7.32938 h 6.97503 z"
           style="fill:#ffffff;fill-opacity:1;stroke:none;stroke-width:1.14807296"
           id="path847"
           inkscape:connector-curvature="0" />
        <path
           d="m 312.33788,264.18851 q 0,1.86498 -0.65275,3.65536 -0.65274,1.77173 -1.86498,2.98397 -1.65983,1.64118 -3.71131,2.48042 -2.03283,0.83924 -5.07274,0.83924 h -4.45731 v 9.04516 h -7.16152 V 255.4231 h 11.78667 q 2.64828,0 4.45731,0.46625 1.82768,0.44759 3.22641,1.36143 1.67849,1.10034 2.55503,2.81612 0.89519,1.71578 0.89519,4.12161 z m -7.40397,0.16785 q 0,-1.17494 -0.6341,-2.01418 -0.63409,-0.85789 -1.47333,-1.19359 -1.11899,-0.4476 -2.18203,-0.4849 -1.06304,-0.0559 -2.83477,-0.0559 h -1.23089 v 8.31781 h 2.05148 q 1.82768,0 3.00262,-0.2238 1.19359,-0.2238 1.99553,-0.89519 0.69004,-0.59679 0.98844,-1.41739 0.31705,-0.83924 0.31705,-2.03282 z"
           style="fill:#ffffff;fill-opacity:1;stroke:none;stroke-width:1.14807296"
           id="path849"
           inkscape:connector-curvature="0" />
        <path
           d="m 332.96456,263.92741 q 0,-1.04439 -0.42895,-1.79038 -0.42895,-0.74599 -1.47333,-1.17494 -0.72735,-0.2984 -1.69714,-0.35434 -0.96979,-0.0746 -2.25662,-0.0746 h -2.59233 v 7.47857 h 2.20068 q 1.71578,0 2.87207,-0.16785 1.15629,-0.16785 1.93958,-0.76464 0.74599,-0.57815 1.08169,-1.26819 0.35435,-0.70869 0.35435,-1.88363 z m 11.17123,19.26525 h -8.74676 l -7.57182,-10.1828 h -3.30102 v 10.1828 h -7.12422 V 255.4231 h 12.01047 q 2.46178,0 4.23351,0.27975 1.77173,0.27974 3.31966,1.21223 1.56659,0.93249 2.48043,2.42448 0.93249,1.47333 0.93249,3.71131 0,3.07722 -1.43604,5.0168 -1.41738,1.93958 -4.06565,3.22641 z"
           style="fill:#ffffff;fill-opacity:1;stroke:none;stroke-width:1.14807296"
           id="path851"
           inkscape:connector-curvature="0" />
        <path
           d="m 374.31116,269.3172 q 0,6.63933 -3.80456,10.55579 -3.80456,3.89781 -10.51849,3.89781 -6.69528,0 -10.49984,-3.89781 -3.80456,-3.91646 -3.80456,-10.55579 0,-6.69528 3.80456,-10.57443 3.80456,-3.89781 10.49984,-3.89781 6.67663,0 10.49984,3.89781 3.82321,3.87915 3.82321,10.57443 z m -9.49275,7.03098 q 1.04439,-1.26819 1.54793,-2.98397 0.50355,-1.73443 0.50355,-4.06566 0,-2.49907 -0.57814,-4.25215 -0.57815,-1.75308 -1.51064,-2.83477 -0.95114,-1.11899 -2.20068,-1.62253 -1.23088,-0.50355 -2.57367,-0.50355 -1.36143,0 -2.57367,0.4849 -1.19359,0.48489 -2.20068,1.60388 -0.93249,1.04439 -1.52928,2.89072 -0.57815,1.82768 -0.57815,4.25215 0,2.48043 0.5595,4.23351 0.57814,1.73443 1.51063,2.83477 0.93249,1.10034 2.18203,1.62253 1.24954,0.5222 2.62962,0.5222 1.38009,0 2.62962,-0.5222 1.24954,-0.54084 2.18203,-1.65983 z"
           style="fill:#ffffff;fill-opacity:1;stroke:none;stroke-width:1.14807296"
           id="path853"
           inkscape:connector-curvature="0" />
        <path
           d="m 394.22918,275.04269 q 0,1.82768 -0.65275,3.43157 -0.65274,1.58523 -1.93958,2.68557 -1.36143,1.17494 -3.28236,1.82768 -1.92093,0.63409 -4.7557,0.63409 -1.92093,0 -3.61806,-0.1492 -1.69714,-0.13054 -2.98397,-0.39164 v -5.63224 h 0.67139 q 0.89519,0.33569 1.86498,0.63409 0.96979,0.27975 2.48043,0.27975 1.95822,0 3.00261,-0.5222 1.06304,-0.52219 1.51064,-1.45468 0.42894,-0.91384 0.48489,-1.99553 0.0559,-1.10034 0.0559,-2.79747 v -11.05933 h -6.35958 v -5.11005 h 13.52111 z"
           style="fill:#ffffff;fill-opacity:1;stroke:none;stroke-width:1.14807296"
           id="path855"
           inkscape:connector-curvature="0" />
      </g>
      <text
         xml:space="preserve"
         style="font-style:normal;font-variant:normal;font-weight:bold;font-stretch:normal;font-size:115.42721558px;line-height:1.25;font-family:Mairyo;-inkscape-font-specification:'Mairyo Bold';letter-spacing:0px;word-spacing:0px;fill:#ffffff;fill-opacity:1;stroke:none;stroke-width:3.46955228"
         x="129.86815"
         y="232.26003"
         id="text4574"
         transform="scale(0.99837287,1.0016298)"><tspan
           sodipodi:role="line"
           id="tspan4572"
           x="129.86815"
           y="232.26003"
           style="fill:#ffffff;fill-opacity:1;stroke:none;stroke-width:3.46955228">t</tspan></text>
    </g>
    <g
       aria-label="V"
       transform="matrix(0.58279965,0,0,0.59336797,7.218532,61.814669)"
       style="font-style:normal;font-variant:normal;font-weight:bold;font-stretch:normal;font-size:245.32052612px;line-height:1.25;font-family:Mairyo;-inkscape-font-specification:'Mairyo Bold';letter-spacing:0px;word-spacing:0px;fill:#ffffff;fill-opacity:1;stroke:none;stroke-width:6.13301325"
       id="text4520">
      <path
         d="M 228.22701,44.094668 126.08,244.75021 23.932984,44.094668 h 54.307712 l 48.513164,85.665422 48.51302,-85.665422 z"
         style="font-style:normal;font-variant:normal;font-weight:bold;font-stretch:normal;font-family:Mairyo;-inkscape-font-specification:'Mairyo Bold';fill:#ffffff;fill-opacity:1;stroke:none;stroke-width:6.89964008"
         id="path4522"
         inkscape:connector-curvature="0"
         sodipodi:nodetypes="ccccccc" />
    </g>
  </g>
</svg>
